<svg xmlns="http://www.w3.org/2000/svg" width="937" height="140" fill-rule="evenodd" xmlns:v="https://vecta.io/nano"><path d="M161.117 92.069c2.81-2.167 4.212-5.563 4.212-10.186 0-9.24-5.758-13.863-17.273-13.863h-21.862v27.301h21.862c5.898 0 10.252-1.082 13.061-3.252zm-34.923-31.3h20.261c5.615 0 9.866-1.136 12.744-3.411s4.318-5.583 4.318-9.919c0-8.532-5.686-12.798-17.062-12.798h-20.261v26.128zm44.095 9.599c2.382 3.127 3.572 7.037 3.572 11.73 0 6.611-2.167 11.676-6.504 15.195s-10.489 5.28-18.449 5.28h-31.354V27.389h30.182c7.747 0 13.758 1.707 18.021 5.118s6.399 8.249 6.399 14.506c0 4.051-1.048 7.535-3.145 10.45s-5.03 5.084-8.8 6.504c4.337 1.139 7.696 3.271 10.078 6.401zm26.182 25.38c-5.048-5.121-7.572-12.653-7.572-22.61V27.389h8.64v46.497c0 7.322 1.793 12.832 5.385 16.529s8.869 5.546 15.834 5.546 12.229-1.85 15.786-5.546 5.331-9.206 5.331-16.529V27.389h8.745v45.749c0 9.883-2.544 17.401-7.626 22.556s-12.494 7.73-22.236 7.73c-9.809 0-17.242-2.558-22.287-7.677zm129.675-32.314v34.767c-2.985 1.564-6.88 2.824-11.676 3.785s-9.653 1.439-14.557 1.439c-7.464 0-13.9-1.527-19.304-4.584s-9.543-7.467-12.421-13.225-4.32-12.654-4.32-20.689c0-7.96 1.422-14.823 4.266-20.582s6.931-10.167 12.262-13.223 11.625-4.586 18.877-4.586c5.26 0 10.093.799 14.501 2.399s8.177 3.966 11.307 7.093l-3.308 6.716c-3.626-3.127-7.198-5.365-10.716-6.716S303.607 34 299.273 34c-8.463 0-14.967 2.668-19.517 7.999s-6.824 12.976-6.824 22.927c0 10.169 2.312 17.899 6.932 23.196s11.373 7.943 20.262 7.943c6.469 0 12.477-.958 18.021-2.878V70.26h-18.661v-6.826h26.66zm13.438 30.501l3.413-6.719c3.697 3.13 7.481 5.368 11.359 6.719 3.872 1.351 8.368 2.026 13.489 2.026 6.042 0 10.699-1.173 13.971-3.518s4.903-5.654 4.903-9.917c0-2.49-.784-4.515-2.345-6.079-1.567-1.566-3.626-2.81-6.184-3.733s-6.008-1.884-10.345-2.881c-5.832-1.349-10.611-2.773-14.344-4.266s-6.756-3.626-9.065-6.399-3.464-6.396-3.464-10.877c0-4.264 1.116-8.05 3.357-11.357s5.441-5.866 9.599-7.679 8.974-2.719 14.45-2.719c5.189 0 10.039.818 14.557 2.453 4.512 1.637 8.336 3.982 11.463 7.039l-3.305 6.716c-3.558-3.054-7.164-5.277-10.826-6.665S372.644 34 368.378 34c-5.832 0-10.399 1.227-13.704 3.68s-4.958 5.885-4.958 10.291c0 3.77 1.454 6.611 4.371 8.532s7.323 3.555 13.223 4.906c6.467 1.566 11.554 3.005 15.251 4.32s6.772 3.289 9.223 5.918 3.682 6.15 3.682 10.557c0 4.266-1.119 7.999-3.36 11.197s-5.458 5.671-9.653 7.413-9.098 2.612-14.715 2.612c-11.733 0-21.117-3.162-28.154-9.49zm141.139-1.866c2.81-2.167 4.215-5.563 4.215-10.186 0-9.24-5.759-13.863-17.277-13.863h-21.862v27.301h21.862c5.901 0 10.255-1.082 13.062-3.252zm-34.924-31.3h20.262c5.615 0 9.866-1.136 12.744-3.411s4.32-5.583 4.32-9.919c0-8.532-5.688-12.798-17.064-12.798h-20.262v26.128zm44.096 9.599c2.382 3.127 3.572 7.037 3.572 11.73 0 6.611-2.167 11.676-6.504 15.195s-10.489 5.28-18.449 5.28H437.16V27.389h30.181c7.748 0 13.758 1.707 18.024 5.118s6.399 8.249 6.399 14.506c0 4.051-1.051 7.535-3.147 10.45s-5.031 5.084-8.798 6.504c4.337 1.139 7.696 3.271 10.076 6.401zm26.179 25.38c-5.048-5.121-7.571-12.653-7.571-22.61V27.389h8.639v46.497c0 7.322 1.793 12.832 5.387 16.529 3.587 3.697 8.867 5.546 15.835 5.546s12.226-1.85 15.783-5.546 5.331-9.206 5.331-16.529V27.389h8.745v45.749c0 9.883-2.544 17.401-7.626 22.556s-12.494 7.73-22.233 7.73c-9.812 0-17.242-2.558-22.29-7.677zm65.907-1.813l3.413-6.719c3.697 3.13 7.481 5.368 11.359 6.719 3.872 1.351 8.368 2.026 13.489 2.026 6.042 0 10.699-1.173 13.97-3.518s4.904-5.654 4.904-9.917c0-2.49-.787-4.515-2.346-6.079-1.566-1.566-3.625-2.81-6.184-3.733s-6.007-1.884-10.344-2.881c-5.832-1.349-10.614-2.773-14.345-4.266s-6.755-3.626-9.066-6.399-3.465-6.396-3.465-10.877c0-4.264 1.119-8.05 3.36-11.357s5.441-5.866 9.599-7.679 8.974-2.719 14.449-2.719c5.19 0 10.04.818 14.557 2.453s8.334 3.982 11.464 7.039l-3.306 6.716c-3.56-3.054-7.163-5.277-10.826-6.665S615.04 34 610.774 34c-5.832 0-10.398 1.227-13.704 3.68s-4.957 5.885-4.957 10.291c0 3.77 1.454 6.611 4.371 8.532s7.322 3.555 13.223 4.906c6.467 1.566 11.551 3.005 15.25 4.32s6.773 3.289 9.224 5.918 3.679 6.15 3.679 10.557c0 4.266-1.119 7.999-3.359 11.197s-5.456 5.671-9.651 7.413-9.099 2.612-14.716 2.612c-11.732 0-21.117-3.162-28.153-9.49zm70.062 8.637h8.744V27.389h-8.744zm79.345-75.183h8.211v75.183h-6.721l-45.322-60.465v60.465h-8.212V27.389h6.721l45.323 60.468zm26.763 75.183V27.389h47.562v7.251H766.79v26.128h36.79v7.252h-36.79v27.301h38.923v7.252zm56.734-8.637l3.411-6.719c3.697 3.13 7.484 5.368 11.359 6.719s8.368 2.026 13.489 2.026c6.042 0 10.699-1.173 13.97-3.518s4.906-5.654 4.906-9.917c0-2.49-.784-4.515-2.345-6.079s-3.626-2.81-6.186-3.733-6.008-1.884-10.345-2.881c-5.83-1.349-10.611-2.773-14.342-4.266s-6.758-3.626-9.067-6.399-3.464-6.396-3.464-10.877c0-4.264 1.119-8.05 3.359-11.357s5.439-5.866 9.597-7.679 8.974-2.719 14.45-2.719c5.189 0 10.041.818 14.556 2.453s8.337 3.982 11.464 7.039l-3.306 6.716c-3.554-3.054-7.161-5.277-10.823-6.665S847.945 34 843.677 34c-5.83 0-10.399 1.227-13.702 3.68s-4.96 5.885-4.96 10.291c0 3.77 1.456 6.611 4.374 8.532 2.912 1.92 7.322 3.555 13.22 4.906 6.47 1.566 11.554 3.005 15.253 4.32s6.77 3.289 9.223 5.918 3.68 6.15 3.68 10.557c0 4.266-1.119 7.999-3.36 11.197s-5.458 5.671-9.653 7.413-9.099 2.612-14.716 2.612c-11.73 0-21.114-3.162-28.151-9.49zm65.797 0l3.413-6.719c3.697 3.13 7.481 5.368 11.356 6.719s8.371 2.026 13.492 2.026c6.04 0 10.699-1.173 13.97-3.518s4.904-5.654 4.904-9.917c0-2.49-.784-4.515-2.345-6.079-1.567-1.566-3.626-2.81-6.184-3.733s-6.008-1.884-10.345-2.881c-5.832-1.349-10.614-2.773-14.344-4.266s-6.756-3.626-9.067-6.399-3.465-6.396-3.465-10.877c0-4.264 1.119-8.05 3.36-11.357s5.441-5.866 9.599-7.679 8.972-2.719 14.45-2.719c5.189 0 10.039.818 14.556 2.453s8.334 3.982 11.462 7.039l-3.304 6.716c-3.557-3.054-7.163-5.277-10.826-6.665S913.742 34 909.476 34c-5.832 0-10.399 1.227-13.705 3.68s-4.959 5.885-4.959 10.291c0 3.77 1.456 6.611 4.373 8.532s7.322 3.555 13.223 4.906c6.467 1.566 11.552 3.005 15.251 4.32s6.772 3.289 9.223 5.918 3.679 6.15 3.679 10.557c0 4.266-1.119 7.999-3.357 11.197s-5.458 5.671-9.653 7.413-9.098 2.612-14.716 2.612c-11.732 0-21.116-3.162-28.153-9.49z" fill="#000"/><path fill="#96c3a4" d="M75.21 27.298L37.604 64.905 0 27.298z"/><path fill="#7bb289" d="M75.213 102.509L37.606 64.902l37.606-37.604z"/><path fill="#5f9f6c" d="M37.606 64.905l37.606 37.606-37.606 37.604z"/><path d="M23.047 7.769a7.77 7.77 0 0 1-7.767 7.767 7.77 7.77 0 0 1-7.767-7.767A7.77 7.77 0 0 1 15.28 0a7.77 7.77 0 0 1 7.767 7.769zm44.648 0a7.77 7.77 0 0 1-7.767 7.767 7.77 7.77 0 0 1-7.767-7.767A7.77 7.77 0 0 1 59.928 0a7.77 7.77 0 0 1 7.767 7.769z" fill="#7bb289"/></svg>