<svg class="svg-brand-logo_text-nl" xmlns="http://www.w3.org/2000/svg" width="304" height="17" viewBox="0 0 304 17"><path fill="#000" d="M9.277 15.831V9.347H3.22v6.484H.04V.4h3.18v6.048h6.058V.4h3.178v15.43H9.278l-.001.001zm13.692.348c-4.405 0-7.854-3.224-7.854-7.763 0-4.688 3.402-8.29 8.101-8.29 4.542 0 8.013 3.098 8.013 7.82 0 4.896-3.544 8.233-8.26 8.233zm.18-13.02c-2.5 0-4.653 1.836-4.653 5.036 0 3.326 2.266 5.006 4.653 5.006 2.54 0 4.675-1.63 4.675-4.982 0-3.241-2.02-5.06-4.675-5.06zM41.872 16.09c-4.398 0-8.487-1.961-8.487-7.914 0-5.24 3.565-8.008 8.4-8.008 2.473 0 4.132.705 4.857 1.251l-.885 3.012c-.727-.587-2.295-1.332-4.154-1.332-2.61 0-4.742 1.609-4.742 5.077 0 3.42 2.153 5.188 5.334 5.188.677 0 1.837-.058 2.315-.41V8.54h3.085v6.117c-1.044.7-3.132 1.434-5.723 1.434v-.001zm8.858-.259V.4h9.352v2.785h-6.151v3.24h5.628v2.81h-5.628v3.815h6.719v2.781h-9.92zm17.614.274c-2.77 0-4.364-.884-5.452-1.514l.683-3.312c1.2.976 3.311 1.9 4.54 1.9 1.43 0 2.249-.654 2.249-1.562 0-.928-.503-1.568-1.568-1.903l-2.088-.68c-3.067-.998-3.385-2.537-3.385-4.579 0-1.928 1.953-4.33 5.084-4.33 2.36 0 3.45.34 4.769 1.245l-.748 3.312c-1.43-1.267-2.543-1.615-3.814-1.615-1.16 0-1.997.66-1.997 1.321 0 .834.479 1.29 1.631 1.672l1.93.637c2.908.948 3.541 2.581 3.541 4.748 0 2.416-2.335 4.66-5.375 4.66zm15.302-.015c-3.842 0-7.697-2.002-7.697-7.674 0-4.801 2.767-8.2 7.878-8.2 2.81 0 4.625 1.264 4.625 1.264l-1.064 3.036c-1.09-.856-2.133-1.292-3.742-1.292-2.66 0-4.41 1.91-4.41 4.855 0 3.586 2.637 4.897 4.883 4.897 1.772 0 2.701-.408 3.768-1.31l1.09 2.834c-1.613 1.243-3.428 1.59-5.33 1.59h-.001zm17.631-.259V9.347h-6.058v6.484h-3.178V.4h3.178v6.048h6.058V.4h3.178v15.43h-3.178v.001zm13.691.348c-4.406 0-7.853-3.224-7.853-7.763 0-4.688 3.404-8.29 8.102-8.29 4.537 0 8.013 3.098 8.013 7.82 0 4.896-3.538 8.233-8.262 8.233zm.183-13.02c-2.5 0-4.655 1.836-4.655 5.036 0 3.326 2.27 5.006 4.655 5.006 2.543 0 4.673-1.63 4.673-4.982 0-3.241-2.017-5.06-4.673-5.06zm18.066 13.02c-4.403 0-7.852-3.224-7.852-7.763 0-4.688 3.405-8.29 8.097-8.29 4.542 0 8.017 3.098 8.017 7.82 0 4.896-3.546 8.233-8.262 8.233zm.178-13.02c-2.497 0-4.653 1.836-4.653 5.036 0 3.326 2.276 5.006 4.653 5.006 2.546 0 4.682-1.63 4.682-4.982 0-3.241-2.026-5.06-4.682-5.06zm10.869 12.672V.4h3.182v12.577h6.74v2.854h-9.922zm31.301.204l-4.448-6.08-.95-.022v6.025h-3.18V.572s2.7-.205 4.557-.205c3.684 0 5.427 1.743 5.427 4.743 0 2.3-1.383 3.807-2.468 4.347l4.516 5.89-3.454.688zm-3.904-12.878a14.5 14.5 0 0 0-1.518.089v4.08s.934.114 1.518.114c1.387 0 2.113-.933 2.113-2.25 0-1.145-.794-2.033-2.113-2.033zM187.323 16.3c-4.403 0-7.856-3.212-7.856-7.752 0-4.691 3.407-8.295 8.109-8.295 4.534 0 8.006 3.103 8.006 7.82 0 4.898-3.536 8.226-8.259 8.226v.001zm.175-13.011c-2.493 0-4.651 1.833-4.651 5.032 0 3.333 2.266 5.018 4.651 5.018 2.543 0 4.683-1.642 4.683-5 0-3.23-2.02-5.05-4.683-5.05zm17.256.251v12.417h-3.182V3.583h-4.375V.545h11.892V3.54h-4.335zm14.02 0v12.417h-3.17V3.583h-4.382V.545h11.893V3.54h-4.341zm6.659 12.418V.525h9.347v2.788h-6.15v3.243h5.63v2.808h-5.63v3.81h6.722v2.784h-9.919zm21.72.077l-4.45-6.08-.949-.022v6.025h-3.183V.572s2.706-.205 4.56-.205c3.68 0 5.423 1.743 5.423 4.743 0 2.3-1.38 3.807-2.465 4.347l4.513 5.89-3.45.688h.001zm-3.902-12.878c-.504 0-1.092.04-1.529.089v4.08s.936.114 1.53.114c1.383 0 2.105-.933 2.105-2.25 0-1.145-.79-2.033-2.106-2.033zm14.273 13.077c-2.297 0-4.898-.334-4.898-.334V.545s2.813-.292 5.082-.292c6.103 0 8.486 3.263 8.486 7.35 0 4.457-2.266 8.631-8.67 8.631zm.544-13.077c-.81 0-2.224.11-2.224.11v9.953c.41.14 1.227.27 2.387.27 2.724 0 4.65-2.54 4.65-5.448 0-3.209-2.545-4.885-4.813-4.885zm20.301 12.85l-1.594-3.878h-5.402l-1.587 3.829h-3.315L272.988.545h2.742l6.039 15.432-3.4.03zm-4.2-11.422l-1.983 5.075h3.793l-1.81-5.075zm25.991 11.421l-2.114-8.929-4.086 8.899h-2.27l-3.977-8.899-1.904 8.899-3.092-.02 3.391-15.18h2.626l4.317 10.248L297.747.545h2.314l3.637 15.412-3.539.05.001-.001z"></path></svg>