<svg class="svg-brand-logo_beeldmerk" xmlns="http://www.w3.org/2000/svg" x="0" y="0" viewBox="0 0 35.6 35.6" width="36" height="36"><path fill="#FFFFFE" d="M29.6 0H6S0 0 0 6v23.6s0 6 6 6h29.6V6s0-6-6-6z"></path><path fill="#C03" d="M31.7 14.3c-.2 1.2-1.3 2.6-2.8 3.4-1.6.9-3.1.8-3.6-.1 1.1-1.3 1.9-2.7 2.3-4 .2-.7.2-1.4.1-2.1-.5-2.9-4.2-3.4-8.2-1.2L19 7.5l-4.2 2.3.7 3.6c.4-.3.9-.4 1.3-.5 1.3-.1 1.7 1.3.9 3.3-.3.7-.7 1.3-1.2 1.9l.8 4.2v.1c.6 2.8 4.3 3.3 8.3 1.1 3.7-2.3 6.5-6.3 6.1-9.2zM13.5 19.9c-1.3.1-1.7-1.3-.9-3.3.4-.8.9-1.5 1.4-2.1l-.8-3.9-8.3 4.6 2.4 12.5 8.3-4.6-.7-3.8c-.5.3-1 .5-1.4.6z"></path></svg>