<svg width="100" height="10" viewBox="0 0 255 29" fill="none" xmlns="http://www.w3.org/2000/svg"><path d="M0 3.517h6.674L11.616 17.2 16.56 3.517h6.52L14.32 25.159H8.765L0 3.517zM28.334 3.517h6.061v21.66h-6.061V3.517zM59.16 0h-4.788L40.664 28.67h4.79L59.16 0z" fill="#FB5F61"></path><path d="M63.324 14.385v-.059c0-6.308 4.825-11.257 11.381-11.257 4.424 0 7.27 1.856 9.184 4.483l-4.518 3.493c-1.238-1.514-2.663-2.539-4.73-2.539-3.035 0-5.167 2.598-5.167 5.756v.059c0 3.245 2.132 5.784 5.166 5.784 2.256 0 3.588-1.054 4.89-2.627l4.518 3.216c-2.044 2.816-4.795 4.89-9.555 4.89-6.185-.006-11.169-4.737-11.169-11.199zM89.95 14.385v-.059c0-6.214 5.012-11.257 11.692-11.257 6.68 0 11.628 4.978 11.628 11.198v.06c0 6.214-5.013 11.257-11.693 11.257-6.674-.006-11.628-4.984-11.628-11.199zm17.171 0v-.059c0-3.157-2.227-5.843-5.538-5.843-3.31 0-5.507 2.662-5.507 5.784v.06c0 3.121 2.256 5.843 5.566 5.843 3.281 0 5.479-2.663 5.479-5.785zM120.693 3.493h6.339l5.166 8.383 5.166-8.383h6.338v21.649h-5.967v-12.43l-5.537 8.477h-.124l-5.508-8.442v12.4h-5.878V3.493h.005zM152.174 3.493h9.307c5.443 0 8.972 2.816 8.972 7.576v.058c0 5.137-3.929 7.823-9.278 7.823h-2.999v6.186h-6.002V3.493zm8.877 10.768c2.103 0 3.434-1.142 3.434-2.845v-.059c0-1.855-1.331-2.816-3.463-2.816h-2.846v5.72h2.875zM182.947 3.34h5.785l9.219 21.807h-6.433l-1.543-3.9h-8.383l-1.549 3.9h-6.279l9.183-21.807zm5.261 13.236l-2.416-6.126-2.444 6.126h4.86zM204.684 3.493h5.596l8.906 11.446V3.493h5.938v21.649h-5.225l-9.278-11.876v11.876h-5.937V3.492z" fill="#000"></path><path d="M240.499 17.042L232.24 3.493h6.833l4.454 7.888 4.483-7.888h6.709l-8.229 13.455v8.194h-6.003v-8.1h.012z" fill="#000" class="logo-white_svg__text"></path></svg>